<?xml version="1.0" encoding="UTF-8"?>
<svg id="b" data-name="Camada 2" xmlns="http://www.w3.org/2000/svg" viewBox="0 0 120.5297852 106.0888489">
  <g id="c" data-name="Camada 1">
    <path d="M56.7885742,106.0888489c-.8842773,0-1.7753906-.2197266-2.5869141-.6630859L2.7929688,77.3329895c-1.7226562-.9414062-2.7929688-2.7460938-2.7929688-4.7099609v-17.7167969c0-1.8994141.9716797-3.6181641,2.5986328-4.5976562,1.6279297-.9785156,3.6005859-1.0332031,5.2783203-.1445312l33.5,17.7265625c.6772461.3583984,1.4892578.3662109,2.1704102.0224609l47.6064453-23.9619141c1.5507812-.78125,3.3911133-.7626953,4.9267578.0517578.0410156.0214844.0810547.0449219.1196289.0703125l21.5424805,14.1220703c1.7216797.9433594,2.7871094,2.7392578,2.7871094,4.7060547v8.8476562c0,1.9697266-1.0761719,3.7783203-2.8076172,4.7177734l-58.4375,28.9921875c-.7709961.4189453-1.6303711.6298828-2.4960938.6298828ZM5.3632812,52.5322082c-.4179688,0-.8344727.1162109-1.2172852.3466797-.7285156.4384766-1.1459961,1.1777344-1.1459961,2.0273438v17.7167969c0,.8662109.4716797,1.6621094,1.2314453,2.0771484l51.4082031,28.0927734c.7089844.3876953,1.5551758.3876953,2.2631836.0039062l58.4370117-28.9921875c.715332-.3896484,1.1899414-1.1865234,1.1899414-2.0556641v-8.8476562c0-.8789062-.4819336-1.6796875-1.2578125-2.0908203-.0410156-.0214844-.0810547-.0449219-.1201172-.0703125l-21.5307617-14.1152344c-.6655273-.3291016-1.4516602-.3300781-2.1181641.0058594h0l-47.6069336,23.9619141c-1.5493164.7783203-3.3891602.7607422-4.921875-.0498047L6.4731445,52.8154114c-.355957-.1884766-.7338867-.2832031-1.1098633-.2832031ZM91.8286133,45.2909973h.0097656-.0097656Z" style="fill: #9e9d8f;"/>
    <path d="M56.7875977,83.6493957c-.8842773,0-1.7758789-.2197266-2.5869141-.6630859L2.7929688,54.8935364c-1.7226562-.9414062-2.7929688-2.7451172-2.7929688-4.7089844v-17.7167969c0-1.8994141.9711914-3.6181641,2.5976562-4.5976562,1.6274414-.9785156,3.5991211-1.0341797,5.2788086-.1464844l33.5004883,17.7275391c.6757812.3603516,1.4873047.3691406,2.1699219.0224609l47.6069336-23.9619141c1.5512695-.78125,3.3925781-.7617188,4.9267578.0522461.0410156.0214844.0810547.0454102.1196289.0708008l21.5424805,14.1220703c1.7216797.9433594,2.7871094,2.7392578,2.7871094,4.7050781v8.8486328c0,1.9707031-1.0761719,3.7783203-2.8085938,4.7167969l-58.4365234,28.9921875c-.7714844.4189453-1.6308594.6298828-2.4970703.6298828ZM5.3637695,30.0937317c-.418457,0-.8349609.1152344-1.2182617.3466797-.7280273.4384766-1.1455078,1.1777344-1.1455078,2.0273438v17.7167969c0,.8662109.4716797,1.6611328,1.2314453,2.0761719l51.4082031,28.0927734c.7080078.3876953,1.5541992.3876953,2.2631836.0039062l58.4370117-28.9921875c.715332-.3886719,1.1899414-1.1855469,1.1899414-2.0546875v-8.8486328c0-.8779297-.4824219-1.6787109-1.2587891-2.0908203-.0405273-.0214844-.0805664-.0449219-.1191406-.0703125l-21.5307617-14.1142578c-.6665039-.3310547-1.4516602-.3300781-2.1181641.0048828h0l-47.6069336,23.9619141c-1.5483398.7792969-3.3891602.7607422-4.9228516-.0507812L6.4731445,30.3759582c-.3554688-.1884766-.7333984-.2822266-1.109375-.2822266ZM91.8286133,22.8515442h.0097656-.0097656Z" style="fill: #deff00;"/>
    <path d="M91.8285515.4128118l-47.6066892,23.9620336c-1.118386.562921-2.4401226.5494356-3.5467903-.0361869L7.1749205,6.6111648c-2.5750471-1.3626544-5.6749205.5041098-5.6749205,3.4174746v17.7170378c0,1.4138316.7716873,2.7149282,2.012355,3.3929133l51.4081441,28.0929c1.1517259.6293812,2.5440902.6315303,3.6977535.0057075l58.3883214-28.9669017c1.2465157-.6761921,2.0228378-1.9805104,2.0228378-3.3986208v-8.8481876c0-1.4313235-.7907181-2.7455478-2.0552914-3.4160263L95.3780762.4504471c-1.1071638-.5870197-2.430163-.6010474-3.5495247-.0376353Z" style="fill: #deff00;"/>
  </g>
</svg>